<svg width="100" height="100" viewBox="0 0 100 100" fill="none" xmlns="http://www.w3.org/2000/svg">
<path d="M100 50C100 77.6142 77.6142 100 50 100C22.3858 100 0 77.6142 0 50C0 22.3858 22.3858 0 50 0C77.6142 0 100 22.3858 100 50Z" fill="#D9D9D9"/>
<path d="M29.5 74.5C25.1 74.5 19 81.1667 16.5 84.5C20.8333 89 33.7 98 50.5 98C67.3 98 79.1667 88.6667 83 84C83 84 76 74.5 69.5 74.5H29.5Z" fill="white"/>
<path d="M74 46.5C74 59.4787 63.4787 70 50.5 70C37.5213 70 27 59.4787 27 46.5C27 33.5213 37.5213 23 50.5 23C63.4787 23 74 33.5213 74 46.5Z" fill="white"/>
</svg>
